<?xml version="1.0" encoding="UTF-8" standalone="no"?>
<!DOCTYPE svg PUBLIC "-//W3C//DTD SVG 1.1//EN" "http://www.w3.org/Graphics/SVG/1.1/DTD/svg11.dtd">
<svg version="1.1" xmlns="http://www.w3.org/2000/svg" xmlns:xlink="http://www.w3.org/1999/xlink" preserveAspectRatio="xMidYMid meet" viewBox="0 0 640 640" width="640" height="640"><defs><path d="M455.68 154.32C443.1 160.38 429.98 158.33 417.85 151.1C391.61 135.58 365.29 120.32 339.14 104.7C327.63 97.83 316.21 96.22 304.34 103.01C259.45 128.79 214.57 154.76 169.77 180.73C161.92 185.28 161.56 189.65 169.77 194.38C216.17 221.33 262.49 248.28 308.71 275.59C318.44 281.3 326.92 279.34 335.66 274.25C396.97 238.64 458.27 203.04 519.58 167.43C524.31 164.67 528.95 161.9 533.85 159.4C551.08 150.66 556.43 150.39 566.16 166.81C573.74 179.48 579.72 195.19 580.17 209.73C581.77 267.38 581.15 325.11 581.06 382.76C581.06 402.75 580.97 422.74 579.72 442.64C578.83 460.84 568.83 477.35 553.13 486.54C503.25 516.44 452.65 545.17 402.32 574.26C399.82 575.06 397.14 575.69 394.56 576.04C395.45 554.09 394.91 533.3 398.39 513.13C399.82 504.92 409.1 496.36 416.95 491.45C445.06 473.78 473.89 457.27 502.89 441.21C512.97 435.59 516.27 428.81 516.19 417.29C515.56 365.54 516.01 313.78 516.01 262.02C516.01 250.69 511.46 247.48 501.55 253.1C455.06 279.78 408.57 306.55 362.61 334.22C357.7 337.16 353.78 346.17 353.78 352.33C353.24 410.96 353.95 469.59 354.13 528.3C354.22 548.74 354.04 569.17 353.78 589.61C353.69 599.87 349.4 606.92 338.61 609.15C320.13 612.99 302.64 611.83 285.96 602.01C225.54 566.76 165.84 531.07 104.9 497.43C73.04 479.85 58.14 455.31 58.76 419.08C59.56 367.32 59.12 315.48 59.21 263.63C59.03 261.93 59.65 260.24 60.46 254.53C83.03 273.27 115.61 276.39 123.37 308.34C126.76 322.08 124.62 337.25 124.8 351.79C125.06 375 124.8 398.2 125.96 421.31C126.22 426.75 129.53 434.52 133.81 437.1C181.02 465.21 228.93 492.52 276.5 520C279.62 521.16 282.83 522.06 286.13 522.59C286.67 506.62 287.38 491.9 287.47 477.17C287.56 434.87 287.83 392.66 286.85 350.37C285.96 343.41 282.12 337.16 276.32 333.32C221.44 300.57 165.93 268.54 110.52 236.32C96.06 227.85 81.07 219.99 67.24 210.53C62.78 206.79 60.46 201.16 60.81 195.36C64.12 176.27 75.81 159.67 92.58 150.03C156.48 113.18 220.19 76.32 283.9 39.47C308.09 25.46 332.27 25.19 356.45 39.11C403.3 66.24 450.06 93.46 496.82 120.67C498.69 121.74 500.48 123.26 504.94 126.56C487.27 136.65 471.92 146.46 455.68 154.32Z" id="k2aAIfBGPx"></path><linearGradient id="gradienta2av27KIbn" gradientUnits="userSpaceOnUse" x1="58.77" y1="319.9" x2="581.19" y2="319.9"><stop style="stop-color: #2de2ad;stop-opacity: 1" offset="1.0541%"></stop><stop style="stop-color: #972de2;stop-opacity: 1" offset="32.690000000000005%"></stop><stop style="stop-color: #8f28e2;stop-opacity: 1" offset="46.48%"></stop><stop style="stop-color: #7a1be1;stop-opacity: 1" offset="67.56%"></stop><stop style="stop-color: #5706e0;stop-opacity: 1" offset="93.17999999999999%"></stop><stop style="stop-color: #4d00e0;stop-opacity: 1" offset="100%"></stop></linearGradient></defs><g><g><g><use xlink:href="#k2aAIfBGPx" opacity="1" fill="url(#gradienta2av27KIbn)"></use><g><use xlink:href="#k2aAIfBGPx" opacity="1" fill-opacity="0" stroke="#000000" stroke-width="1" stroke-opacity="0"></use></g></g></g></g></svg>